<?xml version="1.0" encoding="UTF-8"?>
<svg id="Layer_1" data-name="Layer 1" xmlns="http://www.w3.org/2000/svg" viewBox="0 0 377.8 442.6">
  <defs>
    <style>
      .cls-1 {
        fill: #fff;
        stroke-width: 0px;
      }
    </style>
  </defs>
  <g>
    <path class="cls-1" d="m16.78,95.86l4.03,2.87,1.73-4.66,4.31,1.53-1.61,4.5,5.05.16-.02,4.59-5.13-.03,1.48,4.73-4.4,1.35-1.51-4.69-4.06,2.94-2.67-3.75,4.06-2.94-3.95-2.81,2.7-3.79Z"/>
    <path class="cls-1" d="m94.58,61.42l-18.28,12.33.8,6.28-9.61,6.49-4.03-37.52,13.1-8.84,33.12,17.88-9.57,6.46-5.52-3.09Zm-19.45-10.94l-1.66,1.12,1.73,14.09,12.35-8.33-12.42-6.88Z"/>
    <path class="cls-1" d="m100.58,26.41l23.22-7.99q10.88-3.74,13.33-3.21c2.92.64,4.34,2.47,6.23,7.96,1.61,4.68,1.76,6.64.49,8.5-.65,1.02-1.44,1.66-3.23,2.59,5.07-1.11,6.4.02,8.72,7.37l1.01,2.93-9.46,3.25-.57-1.66c-1.22-3.55-1.8-4.62-2.83-5.16-.92-.53-1.66-.38-5.64.99l-13.57,4.67,2.75,7.99-9.6,3.3-10.85-31.54Zm28.51,7.7q4.79-1.75,5.29-2.45c.59-.73.55-1.78-.13-3.76-.73-2.13-1.42-2.9-2.56-2.98-.76-.06-.9,0-5.27,1.44l-13.52,4.65,2.67,7.75,13.52-4.65Z"/>
    <path class="cls-1" d="m174.17,8.54l12.55,24.75,1.95-.03,11.59-25.14,11.1-.18-15.76,33.61-15.55.25-17.04-33.08,11.15-.18Z"/>
    <path class="cls-1" d="m229.35,12.09l-5.48,32.89-10.5-1.75,5.48-32.89,10.5,1.75Z"/>
    <path class="cls-1" d="m274.17,25.13l-2.47,7.45-25.53-8.47-1.53,4.6,24.25,8.05-2.32,6.98-24.25-8.05-1.67,5.03,25.72,8.53-2.52,7.59-35.21-11.68,10.5-31.65,35.02,11.62Z"/>
    <path class="cls-1" d="m293.21,33.91l-7.32,25.48,1.5,1.08,20.71-15.83,9.94,7.16-8.41,24.69,1.54,1.11,21.88-14.99,8.72,6.28-30,19.49-12.7-9.15,8.85-23.76-19.64,15.98-12.78-9.2,9.31-34.4,8.4,6.05Z"/>
    <path class="cls-1" d="m363.99,99.92l-4.03,2.87,3.84,3.16-2.86,3.57-3.73-2.99-1.8,4.72-4.33-1.52,1.71-4.84-4.96-.15.17-4.6,4.93.11-1.45-4.8,4.41-1.3,1.45,4.8,3.95-2.81,2.7,3.79Z"/>
  </g>
  <g>
    <path class="cls-1" d="m361.08,346.78l-4.03-2.87-1.73,4.66-4.31-1.54,1.61-4.5-5.05-.16.02-4.59,5.13.04-1.48-4.74,4.4-1.35,1.5,4.7,4.06-2.94,2.67,3.75-4.06,2.94,3.95,2.82-2.7,3.79Z"/>
    <path class="cls-1" d="m283.17,381.25l18.29-12.32-.79-6.28,9.62-6.48,3.99,37.53-13.11,8.83-33.11-17.91,9.58-6.45,5.52,3.09Zm19.44,10.96l1.66-1.12-1.72-14.1-12.36,8.33,12.42,6.89Z"/>
    <path class="cls-1" d="m277.19,416.24l-23.22,7.97q-10.88,3.73-13.33,3.2c-2.92-.64-4.34-2.47-6.22-7.96-1.61-4.68-1.75-6.64-.49-8.5.65-1.02,1.44-1.66,3.23-2.59-5.07,1.11-6.4-.02-8.71-7.37l-1.01-2.93,9.46-3.25.57,1.66c1.22,3.55,1.8,4.62,2.83,5.16.92.53,1.66.38,5.63-.98l13.57-4.66-2.74-7.99,9.6-3.3,10.83,31.54Zm-28.5-7.71q-4.79,1.75-5.29,2.45c-.59.73-.55,1.78.13,3.76.73,2.13,1.42,2.9,2.56,2.98.76.06.9,0,5.27-1.44l13.52-4.64-2.66-7.76-13.52,4.64Z"/>
    <path class="cls-1" d="m203.6,434.06l-12.55-24.75-1.95.03-11.59,25.14-11.1.18,15.76-33.61,15.55-.25,17.04,33.08-11.15.18Z"/>
    <path class="cls-1" d="m148.37,430.49l5.5-32.89,10.5,1.75-5.5,32.89-10.5-1.76Z"/>
    <path class="cls-1" d="m103.59,417.43l2.48-7.45,25.53,8.49,1.53-4.6-24.25-8.06,2.32-6.98,24.25,8.06,1.67-5.03-25.72-8.55,2.52-7.59,35.21,11.71-10.52,31.65-35.02-11.64Z"/>
    <path class="cls-1" d="m84.57,408.64l7.33-25.47-1.5-1.08-20.71,15.82-9.94-7.16,8.42-24.68-1.54-1.11-21.89,14.98-8.72-6.29,30-19.48,12.69,9.15-8.86,23.75,19.65-15.97,12.78,9.21-9.32,34.39-8.4-6.05Z"/>
    <path class="cls-1" d="m13.82,342.59l4.04-2.87-3.84-3.16,2.86-3.57,3.73,3,1.8-4.72,4.33,1.52-1.71,4.84,4.96.16-.17,4.6-4.93-.12,1.45,4.8-4.42,1.3-1.45-4.8-3.95,2.81-2.7-3.79Z"/>
  </g>
</svg>