<?xml version="1.0" encoding="UTF-8"?>
<svg id="Layer_1" data-name="Layer 1" xmlns="http://www.w3.org/2000/svg" viewBox="0 0 169.65 198.02">
  <defs>
    <style>
      .cls-1 {
        fill: #fff;
        fill-rule: evenodd;
        stroke-width: 0px;
      }
    </style>
  </defs>
  <path class="cls-1" d="m84.82,0c-23.77,0-43.05,19.27-43.05,43.05h-1.19c-18.07,0-33.06,13.96-34.35,31.99L.09,161.13c-1.42,19.93,14.37,36.89,34.35,36.89h100.77c19.99,0,35.77-16.96,34.35-36.89l-6.15-86.1c-1.29-18.02-16.28-31.99-34.35-31.99h-1.19C127.87,19.27,108.6,0,84.82,0Zm25.83,60.27v17.22c0,4.75,3.85,8.61,8.61,8.61s8.61-3.85,8.61-8.61v-17.22h1.19c9.03,0,16.53,6.98,17.17,15.99l6.15,86.1c.71,9.97-7.18,18.45-17.18,18.45H34.44c-9.99,0-17.89-8.48-17.18-18.45l6.15-86.1c.64-9.01,8.14-15.99,17.18-15.99h1.19v17.22c0,4.75,3.85,8.61,8.61,8.61s8.61-3.85,8.61-8.61v-17.22h51.66Zm0-17.22c0-14.27-11.56-25.83-25.83-25.83s-25.83,11.56-25.83,25.83h51.66Z"/>
</svg>