<?xml version="1.0" standalone="no"?>
<!DOCTYPE svg PUBLIC "-//W3C//DTD SVG 20010904//EN"
 "http://www.w3.org/TR/2001/REC-SVG-20010904/DTD/svg10.dtd">
<svg version="1.0" xmlns="http://www.w3.org/2000/svg"
 width="500.000000pt" height="500.000000pt" viewBox="0 0 500.000000 500.000000"
 preserveAspectRatio="xMidYMid meet">

<g transform="translate(0.000000,500.000000) scale(0.100000,-0.100000)"
fill="#000000" stroke="none">
<path d="M0 2500 l0 -2500 2500 0 2500 0 0 2500 0 2500 -2500 0 -2500 0 0
-2500z m2740 1622 c113 -65 275 -158 361 -208 l155 -89 -79 -135 c-43 -74 -93
-160 -110 -190 -17 -30 -38 -67 -47 -82 l-16 -27 -69 41 c-318 185 -415 238
-435 238 -26 0 -69 -23 -385 -205 -132 -76 -301 -173 -375 -216 -222 -128
-250 -146 -260 -175 -7 -17 -10 -183 -8 -460 l3 -434 28 -27 27 -28 368 -5
368 -5 -120 -211 c-67 -115 -131 -227 -143 -247 l-22 -37 -448 0 c-499 0 -494
-1 -540 69 l-23 34 0 804 c0 886 -3 837 62 886 18 14 137 84 263 157 127 73
304 175 395 227 91 53 226 131 300 173 74 43 209 121 300 174 134 78 173 96
205 96 33 0 77 -21 245 -118z m1206 -762 c78 -38 74 13 74 -895 0 -750 -1
-809 -17 -837 -18 -30 -59 -57 -323 -208 -80 -46 -197 -113 -260 -150 -806
-467 -883 -510 -924 -510 -29 0 -64 14 -140 58 -56 32 -213 123 -351 202 -137
79 -254 146 -258 150 -5 4 12 42 37 84 25 43 46 79 46 81 0 2 28 50 61 107 34
57 69 117 79 135 l17 32 174 -100 c256 -148 314 -179 339 -179 13 0 57 20 99
44 79 46 483 279 726 419 77 44 152 92 168 105 l27 26 0 445 c-1 473 1 459
-50 494 -22 15 -62 17 -387 17 l-362 0 76 128 c41 70 86 147 100 172 14 25 45
80 70 123 l45 77 446 0 c428 0 447 -1 488 -20z"/>
</g>
</svg>
