<?xml version="1.0" standalone="no"?>
<!DOCTYPE svg PUBLIC "-//W3C//DTD SVG 20010904//EN"
 "http://www.w3.org/TR/2001/REC-SVG-20010904/DTD/svg10.dtd">
<svg version="1.0" xmlns="http://www.w3.org/2000/svg"
 width="300.000000pt" height="300.000000pt" viewBox="0 0 300.000000 300.000000"
 preserveAspectRatio="xMidYMid meet">
<metadata>
Created by potrace 1.14, written by Peter Selinger 2001-2017
</metadata>
<g transform="translate(0.000000,300.000000) scale(0.100000,-0.100000)"
fill="#000000" stroke="none">
<path d="M608 2990 c-274 -47 -493 -244 -580 -520 l-23 -75 0 -895 0 -895 23
-75 c79 -251 250 -422 502 -502 l75 -23 895 0 895 0 75 23 c252 80 423 251
502 502 l23 75 0 895 0 895 -23 75 c-78 248 -244 416 -497 501 l-70 24 -875 1
c-481 1 -896 -2 -922 -6z m1129 -571 c117 -67 213 -123 213 -125 0 -5 -139
-246 -146 -253 -2 -2 -65 32 -140 74 -76 43 -147 80 -158 82 -22 4 -120 -48
-433 -231 -133 -77 -179 -109 -184 -127 -4 -13 -7 -136 -8 -273 -1 -243 0
-250 21 -273 21 -23 25 -23 235 -23 122 0 213 -4 213 -9 0 -5 -37 -73 -82
-151 l-81 -142 -280 4 -279 3 -24 30 -24 30 1 445 c0 456 5 546 30 562 8 5
203 119 434 253 283 165 430 244 450 245 19 0 98 -39 242 -121z m639 -406 c12
-7 24 -27 28 -44 3 -17 6 -245 6 -506 l0 -475 -29 -26 c-16 -15 -73 -52 -127
-84 -55 -31 -241 -138 -414 -237 -208 -120 -324 -181 -343 -181 -19 0 -101 42
-230 116 -111 63 -206 119 -211 124 -5 5 18 55 52 117 93 165 67 157 223 69
74 -42 144 -79 155 -82 12 -3 37 2 55 12 55 28 481 274 524 303 l40 27 3 270
c2 221 0 273 -12 289 -13 19 -29 20 -235 23 -122 2 -221 5 -221 7 0 4 129 229
157 273 l14 23 272 -3 c190 -2 278 -7 293 -15z"/>
</g>
</svg>
